<?xml version="1.0" standalone="no"?>
<!DOCTYPE svg PUBLIC "-//W3C//DTD SVG 20010904//EN"
 "http://www.w3.org/TR/2001/REC-SVG-20010904/DTD/svg10.dtd">
<svg version="1.0" xmlns="http://www.w3.org/2000/svg"
 width="500.000000pt" height="500.000000pt" viewBox="0 0 500.000000 500.000000"
 preserveAspectRatio="xMidYMid meet">
<metadata>
Created by potrace 1.14, written by Peter Selinger 2001-2017
</metadata>
<g transform="translate(0.000000,500.000000) scale(0.100000,-0.100000)"
fill="#000000" stroke="none">
<path d="M2220 3869 c-111 -16 -264 -82 -366 -159 -230 -173 -393 -460 -461
-815 -26 -133 -24 -469 4 -590 2 -11 6 -33 9 -50 9 -57 64 -222 98 -296 104
-230 279 -412 483 -505 32 -15 65 -30 74 -34 8 -4 55 -18 105 -31 72 -19 116
-23 229 -24 162 0 194 4 295 41 115 41 178 81 265 169 84 83 129 151 181 270
30 67 70 207 79 277 3 18 7 53 11 78 l5 45 -61 -2 c-34 0 -63 -3 -64 -5 -1 -1
-12 -54 -24 -116 -65 -336 -237 -549 -497 -617 -114 -30 -278 -19 -381 26
-238 101 -363 426 -368 954 l-1 110 724 3 724 2 -7 104 c-28 465 -221 874
-498 1054 -63 41 -202 99 -263 109 -56 9 -240 11 -295 2z m220 -131 c226 -69
364 -390 385 -893 3 -66 0 -95 -8 -97 -7 -2 -230 -4 -497 -3 l-485 0 1 95 c1
251 60 515 152 680 44 80 136 174 197 201 81 36 172 42 255 17z"/>
<path d="M3680 1537 c-171 -48 -273 -217 -239 -396 20 -109 87 -193 199 -252
37 -19 61 -23 135 -24 80 0 96 3 148 30 221 111 267 388 94 558 -27 26 -69 57
-95 68 -57 26 -178 34 -242 16z"/>
</g>
</svg>
